<svg xmlns="http://www.w3.org/2000/svg" width="840" height="220" viewBox="0 0 840 220" role="img" aria-label="voxel-skyline: 노트, 문서, CSV를 걸어 다닐 수 있는 복셀 도시로 바꾸는 3D 시각화 도구">
  <style>
    .mono{font-family:'JetBrains Mono','SF Mono','Cascadia Code',Consolas,'Liberation Mono',monospace}
    .sans{font-family:'Pretendard','Apple SD Gothic Neo','Malgun Gothic','Noto Sans KR','Segoe UI',sans-serif}
    .blink{animation:blink 1.1s steps(1) infinite}
    .pulse{animation:pulse 4s ease-in-out infinite}
    .scan{animation:scan 2.8s ease-in-out infinite alternate}
    @keyframes blink{50%{opacity:0}}
    @keyframes pulse{0%,100%{opacity:.35}50%{opacity:1}}
    @keyframes scan{from{transform:translateY(0)}to{transform:translateY(var(--d,38px))}}
    @media (max-width: 560px){.aside{display:none}.cmd{font-size:20px}}
    @media (prefers-reduced-motion: reduce){.blink,.pulse,.scan{animation:none}}
  </style>
<rect x="0.5" y="0.5" width="839" height="219" rx="12" fill="#0B1626" stroke="#1B2B42"/>
<text x="32" y="54" class="sans" font-size="26" fill="#E6EEF7" font-weight="800" letter-spacing="-.5">voxel-skyline</text>
<path d="M197.4 52 L209.4 40 M201.0 40 H209.4 V43.6" stroke="#5CC8FF" stroke-width="2.2" fill="none" stroke-linecap="round" stroke-linejoin="round"/>
<text x="32" y="94" class="sans" font-size="21" fill="#A3B4C9" >노트, 문서, CSV를 걸어 다닐 수 있는</text>
<text x="32" y="125" class="sans" font-size="21" fill="#A3B4C9" >복셀 도시로 바꾸는 3D 시각화 도구</text>
<rect x="32" y="162" width="128" height="36" rx="18" fill="#07101C" stroke="#1B2B42"/><text x="96" y="186" class="mono" font-size="17" fill="#A3B4C9" text-anchor="middle">TypeScript</text><rect x="168" y="162" width="108" height="36" rx="18" fill="#07101C" stroke="#1B2B42"/><text x="222" y="186" class="mono" font-size="17" fill="#A3B4C9" text-anchor="middle">three.js</text><rect x="284" y="162" width="67" height="36" rx="18" fill="#07101C" stroke="#1B2B42"/><text x="317" y="186" class="mono" font-size="17" fill="#A3B4C9" text-anchor="middle">Vite</text>
<g transform="translate(690 150) scale(1.0)"><path d="M-60 -22 L-44 -30.0 L-28 -22 L-44 -14.0 Z" fill="#24364F"/><path d="M-60 -22 L-44 -14.0 L-44 26.0 L-60 18 Z" fill="#15233A"/><path d="M-44 -14.0 L-28 -22 L-28 18 L-44 26.0 Z" fill="#0F1A2C"/><path d="M-50.0 0.0 L-46.0 2.0 L-46.0 7.0 L-50.0 5.0 Z" fill="#5CC8FF" fill-opacity="0.9"/><path d="M4 -102 L20 -110.0 L36 -102 L20 -94.0 Z" fill="#5CC8FF"/><path d="M4 -102 L20 -94.0 L20 26.0 L4 18 Z" fill="#15233A"/><path d="M20 -94.0 L36 -102 L36 18 L20 26.0 Z" fill="#0F1A2C"/><path d="M6.0 -95.0 L10.0 -93.0 L10.0 -88.0 L6.0 -90.0 Z" fill="#5CC8FF" fill-opacity="0.35"/><path d="M14.0 -91.0 L18.0 -89.0 L18.0 -84.0 L14.0 -86.0 Z" fill="#5CC8FF" fill-opacity="0.6"/><path d="M14.0 -80.0 L18.0 -78.0 L18.0 -73.0 L14.0 -75.0 Z" fill="#5CC8FF" fill-opacity="0.6"/><path d="M14.0 -69.0 L18.0 -67.0 L18.0 -62.0 L14.0 -64.0 Z" fill="#5CC8FF" fill-opacity="0.35"/><path d="M14.0 -58.0 L18.0 -56.0 L18.0 -51.0 L14.0 -53.0 Z" fill="#5CC8FF" fill-opacity="0.9"/><path d="M14.0 -47.0 L18.0 -45.0 L18.0 -40.0 L14.0 -42.0 Z" fill="#5CC8FF" fill-opacity="0.6"/><path d="M6.0 -40.0 L10.0 -38.0 L10.0 -33.0 L6.0 -35.0 Z" fill="#5CC8FF" fill-opacity="0.35"/><path d="M14.0 -36.0 L18.0 -34.0 L18.0 -29.0 L14.0 -31.0 Z" fill="#5CC8FF" fill-opacity="0.35"/><path d="M14.0 -25.0 L18.0 -23.0 L18.0 -18.0 L14.0 -20.0 Z" fill="#5CC8FF" fill-opacity="0.35"/><path d="M14.0 -14.0 L18.0 -12.0 L18.0 -7.0 L14.0 -9.0 Z" fill="#5CC8FF" fill-opacity="0.6"/><path d="M14.0 8.0 L18.0 10.0 L18.0 15.0 L14.0 13.0 Z" fill="#5CC8FF" fill-opacity="0.6"/><path d="M68 -12 L84 -20.0 L100 -12 L84 -4.0 Z" fill="#24364F"/><path d="M68 -12 L84 -4.0 L84 26.0 L68 18 Z" fill="#15233A"/><path d="M84 -4.0 L100 -12 L100 18 L84 26.0 Z" fill="#0F1A2C"/><path d="M70.0 6.0 L74.0 8.0 L74.0 13.0 L70.0 11.0 Z" fill="#5CC8FF" fill-opacity="0.35"/><path d="M-28 -44 L-12 -52.0 L4 -44 L-12 -36.0 Z" fill="#24364F"/><path d="M-28 -44 L-12 -36.0 L-12 42.0 L-28 34 Z" fill="#15233A"/><path d="M-12 -36.0 L4 -44 L4 34 L-12 42.0 Z" fill="#0F1A2C"/><path d="M-26.0 -37.0 L-22.0 -35.0 L-22.0 -30.0 L-26.0 -32.0 Z" fill="#5CC8FF" fill-opacity="0.9"/><path d="M-18.0 -33.0 L-14.0 -31.0 L-14.0 -26.0 L-18.0 -28.0 Z" fill="#5CC8FF" fill-opacity="0.9"/><path d="M-26.0 -26.0 L-22.0 -24.0 L-22.0 -19.0 L-26.0 -21.0 Z" fill="#5CC8FF" fill-opacity="0.9"/><path d="M-18.0 -22.0 L-14.0 -20.0 L-14.0 -15.0 L-18.0 -17.0 Z" fill="#5CC8FF" fill-opacity="0.35"/><path d="M-18.0 -11.0 L-14.0 -9.0 L-14.0 -4.0 L-18.0 -6.0 Z" fill="#5CC8FF" fill-opacity="0.9"/><path d="M-26.0 -4.0 L-22.0 -2.0 L-22.0 3.0 L-26.0 1.0 Z" fill="#5CC8FF" fill-opacity="0.9"/><path d="M-18.0 0.0 L-14.0 2.0 L-14.0 7.0 L-18.0 5.0 Z" fill="#5CC8FF" fill-opacity="0.9"/><path d="M-26.0 7.0 L-22.0 9.0 L-22.0 14.0 L-26.0 12.0 Z" fill="#5CC8FF" fill-opacity="0.9"/><path d="M-26.0 18.0 L-22.0 20.0 L-22.0 25.0 L-26.0 23.0 Z" fill="#5CC8FF" fill-opacity="0.35"/><path d="M36 -24 L52 -32.0 L68 -24 L52 -16.0 Z" fill="#24364F"/><path d="M36 -24 L52 -16.0 L52 42.0 L36 34 Z" fill="#15233A"/><path d="M52 -16.0 L68 -24 L68 34 L52 42.0 Z" fill="#0F1A2C"/><path d="M38.0 -17.0 L42.0 -15.0 L42.0 -10.0 L38.0 -12.0 Z" fill="#5CC8FF" fill-opacity="0.35"/><path d="M46.0 -2.0 L50.0 0.0 L50.0 5.0 L46.0 3.0 Z" fill="#5CC8FF" fill-opacity="0.35"/><path d="M38.0 27.0 L42.0 29.0 L42.0 34.0 L38.0 32.0 Z" fill="#5CC8FF" fill-opacity="0.9"/><path d="M46.0 31.0 L50.0 33.0 L50.0 38.0 L46.0 36.0 Z" fill="#5CC8FF" fill-opacity="0.35"/></g>
</svg>
